<?xml version="1.0" encoding="UTF-8"?>
<svg width="26px" height="27px" viewBox="0 0 26 27" version="1.1" xmlns="http://www.w3.org/2000/svg" xmlns:xlink="http://www.w3.org/1999/xlink">
    <!-- Generator: sketchtool 63.1 (101010) - https://sketch.com -->
    <title>9B8027B4-DC68-4396-9B1B-14632983EC0F</title>
    <desc>Created with sketchtool.</desc>
    <g id="Page-1" stroke="none" stroke-width="1" fill="none" fill-rule="evenodd">
        <g id="Table-View" transform="translate(-31.000000, -76.000000)">
            <g id="Group-14" transform="translate(0.000000, 28.000000)">
                <g id="Group-13" transform="translate(30.000000, 23.904762)">
                    <g id="Group-9" transform="translate(0.000000, 1.952381)">
                        <g id="Group-8" transform="translate(1.000000, 21.904762)">
                            <g id="Group-7" transform="translate(0.000000, 1.000000)">
                                <circle id="Oval-2" fill="#118899" cx="13" cy="13" r="13"></circle>
                                <g id="flash" transform="translate(9.285714, 6.500000)" fill="#FFFFFF" fill-rule="nonzero">
                                    <path d="M7.89652065,4.77703753 C7.85846191,4.69531599 7.77649554,4.64286621 7.68620466,4.64286621 L4.9353118,4.64286621 L7.65021345,0.356348354 C7.69548131,0.284855608 7.69825614,0.194319894 7.65742257,0.12026995 C7.6165618,0.0459751674 7.53854004,0 7.45404367,0 L3.73976702,0 C3.6517885,0 3.57145438,0.0496749442 3.53200823,0.128376814 L0.0498653739,7.09266253 C0.0138741629,7.16440011 0.0178187779,7.24982143 0.0600669643,7.3182945 C0.102559989,7.38676758 0.177072405,7.42855329 0.257624163,7.42855329 L2.64474191,7.42855329 L0.0435811942,13.6063372 C-0.00076171875,13.7119713 0.038711635,13.8345264 0.136429269,13.8944301 C0.17402553,13.9174177 0.215811244,13.9285442 0.257379325,13.9285442 C0.324002511,13.9285442 0.389700753,13.8999798 0.435213449,13.8461426 L7.86379395,5.02470494 C7.92203823,4.95555176 7.93457938,4.8589767 7.89652065,4.77703753 Z" id="Shape"></path>
                                </g>
                            </g>
                        </g>
                    </g>
                </g>
            </g>
        </g>
    </g>
</svg>